HIERARCHY
ROOT joint_Root
{
	OFFSET 0.0 0.0 0.0
	CHANNELS 6 Xposition Yposition Zposition Zrotation Xrotation Yrotation 
	JOINT Hips
	{
		OFFSET 4.5925 91.4895 -427.239
		CHANNELS 6 Xposition Yposition Zposition Zrotation Xrotation Yrotation 
		JOINT Spine
		{
			OFFSET 15.7357 0.0 0.0
			CHANNELS 6 Xposition Yposition Zposition Zrotation Xrotation Yrotation 
			JOINT Chest
			{
				OFFSET 8.98455 -0.406207 0.0
				CHANNELS 6 Xposition Yposition Zposition Zrotation Xrotation Yrotation 
				JOINT Neck
				{
					OFFSET 16.3773 0.0 0.0
					CHANNELS 6 Xposition Yposition Zposition Zrotation Xrotation Yrotation 
					JOINT Head
					{
						OFFSET 6.45672 0.0 0.0
						CHANNELS 6 Xposition Yposition Zposition Zrotation Xrotation Yrotation 
						End Site
						{
							OFFSET 0.0 0.0 0.0
						}
					}
				}
				JOINT Shoulder_L
				{
					OFFSET 12.9942 -0.242716 4.98039
					CHANNELS 6 Xposition Yposition Zposition Zrotation Xrotation Yrotation 
					JOINT UpperArm_L
					{
						OFFSET 5.34809 0.0 0.0
						CHANNELS 6 Xposition Yposition Zposition Zrotation Xrotation Yrotation 
						JOINT LowerArm_L
						{
							OFFSET 24.3286 1.87007e-05 0.0
							CHANNELS 6 Xposition Yposition Zposition Zrotation Xrotation Yrotation 
							JOINT Hand_L
							{
								OFFSET 22.2916 0.0 0.0
								CHANNELS 6 Xposition Yposition Zposition Zrotation Xrotation Yrotation 
								End Site
								{
									OFFSET 0.0 0.0 0.0
								}
							}
						}
					}
				}
				JOINT Shoulder_R
				{
					OFFSET 12.9945 -0.242716 -4.98039
					CHANNELS 6 Xposition Yposition Zposition Zrotation Xrotation Yrotation 
					JOINT UpperArm_R
					{
						OFFSET -5.34813 0.0 0.0
						CHANNELS 6 Xposition Yposition Zposition Zrotation Xrotation Yrotation 
						JOINT LowerArm_R
						{
							OFFSET -24.3289 0.000322201 0.0
							CHANNELS 6 Xposition Yposition Zposition Zrotation Xrotation Yrotation 
							JOINT Hand_R
							{
								OFFSET -22.2915 -0.000108084 0.0
								CHANNELS 6 Xposition Yposition Zposition Zrotation Xrotation Yrotation 
								End Site
								{
									OFFSET 0.0 0.0 0.0
								}
							}
						}
					}
				}
			}
		}
		JOINT UpperLeg_L
		{
			OFFSET -2.19248 -6.46944 0.0
			CHANNELS 6 Xposition Yposition Zposition Zrotation Xrotation Yrotation 
			JOINT LowerLeg_L
			{
				OFFSET 39.0811 0.0 -1.23785e-05
				CHANNELS 6 Xposition Yposition Zposition Zrotation Xrotation Yrotation 
				JOINT Foot_L
				{
					OFFSET 40.9854 0.0 -1.26872e-05
					CHANNELS 6 Xposition Yposition Zposition Zrotation Xrotation Yrotation 
					JOINT Toes_L
					{
						OFFSET 11.7543 0.0 0.0
						CHANNELS 6 Xposition Yposition Zposition Zrotation Xrotation Yrotation 
						End Site
						{
							OFFSET 0.0 0.0 0.0
						}
					}
				}
			}
		}
		JOINT UpperLeg_R
		{
			OFFSET -2.19251 6.46944 0.0
			CHANNELS 6 Xposition Yposition Zposition Zrotation Xrotation Yrotation 
			JOINT LowerLeg_R
			{
				OFFSET -39.0811 -0.00228153 -0.0401928
				CHANNELS 6 Xposition Yposition Zposition Zrotation Xrotation Yrotation 
				JOINT Foot_R
				{
					OFFSET -40.9854 0.0 0.0
					CHANNELS 6 Xposition Yposition Zposition Zrotation Xrotation Yrotation 
					JOINT Toes_R
					{
						OFFSET -11.7543 0.0 0.0
						CHANNELS 6 Xposition Yposition Zposition Zrotation Xrotation Yrotation 
						End Site
						{
							OFFSET 0.0 0.0 0.0
						}
					}
				}
			}
		}
	}
}
MOTION
Frames:	9
Frame Time:	0.0333333
0.000000 0.000000 0.000000 0.000000 0.000000 -0.000000 -1.894900 90.232400 -4.174750 89.301800 1.515880 12.723400 15.735700 0.000005 -0.000001 91.344000 76.063700 -91.100000 8.984550 -0.406207 -0.000000 20.098400 0.665121 0.371643 16.377300 -0.000001 -0.000001 5.024390 -3.165310 1.875320 6.456720 -0.000001 -0.000000 -9.334050 -3.156500 6.375250 12.994200 -0.242716 4.980390 -90.670500 2.530020 -75.151600 5.348090 -0.000007 -0.000001 -67.924000 -23.544800 -64.867900 24.328600 0.000019 0.000005 38.486200 -9.744800 -102.019000 22.291600 -0.000001 0.000005 37.589800 4.832560 10.697000 12.994500 -0.242716 -4.980390 89.114800 11.313800 -85.497100 -5.348130 -0.000001 -0.000004 -53.673800 35.022700 -26.326200 -24.328900 0.000322 -0.000009 0.857496 2.289250 -20.564400 -22.291500 -0.000108 -0.000004 15.755600 5.426600 -3.822670 -2.192480 -6.469440 -0.000000 -173.478000 -11.389900 -3.139480 39.081100 -0.000007 -0.000012 -0.208681 0.299892 34.832600 40.985400 -0.000006 -0.000013 0.065710 6.941830 -68.722600 11.754300 -0.000000 0.000003 -0.000145 -0.001409 -16.631200 -2.192510 6.469440 -0.000001 174.029000 24.189400 179.890000 -39.081100 -0.002282 -0.040193 -0.208524 0.312803 34.104400 -40.985400 0.000008 0.000006 4.748980 11.664300 -70.777600 -11.754300 -0.000006 -0.000006 -0.001827 -0.026532 -17.652000
0.000000 0.000000 0.000000 0.000000 0.000000 -0.000000 -1.907480 90.246200 -4.233170 89.316900 1.660020 12.692800 15.735700 0.000005 -0.000001 91.316500 76.063700 -91.093800 8.984550 -0.406207 -0.000000 20.098800 0.649774 0.331625 16.377300 -0.000001 -0.000001 5.006160 -3.080520 1.703080 6.456720 -0.000001 -0.000000 -9.347710 -3.058390 6.336180 12.994200 -0.242716 4.980390 -90.647000 2.439330 -75.141500 5.348090 -0.000007 -0.000001 -65.031000 -21.693200 -65.690900 24.328600 0.000019 0.000005 38.629000 -10.069000 -102.341000 22.291600 -0.000001 0.000005 37.069600 4.852350 10.314700 12.994500 -0.242716 -4.980390 89.125600 11.296600 -85.544700 -5.348130 -0.000001 -0.000004 -53.434900 35.246300 -26.516900 -24.328900 0.000322 -0.000009 0.813430 2.134550 -20.891100 -22.291500 -0.000108 -0.000004 15.896100 5.423370 -3.712960 -2.192480 -6.469440 -0.000000 -173.529000 -11.309500 -3.212160 39.081100 -0.000007 -0.000012 -0.206211 0.297041 34.769400 40.985400 -0.000006 -0.000013 0.071924 6.975150 -68.630500 11.754300 -0.000000 0.000003 -0.000144 -0.001400 -16.630800 -2.192510 6.469440 -0.000001 173.996000 24.356900 179.869000 -39.081100 -0.002282 -0.040193 -0.210088 0.315792 34.047200 -40.985400 0.000008 0.000006 4.693510 11.697100 -70.705100 -11.754300 -0.000006 -0.000006 -0.001752 -0.025573 -17.613000
0.000000 0.000000 0.000000 0.000000 0.000000 -0.000000 -1.911320 90.250900 -4.285130 89.311600 1.677310 12.642400 15.735700 0.000005 -0.000001 91.261900 76.072400 -91.066000 8.984550 -0.406207 -0.000000 20.082300 0.620567 0.283254 16.377300 -0.000001 -0.000001 5.016520 -2.968510 1.584040 6.456720 -0.000001 -0.000000 -9.295810 -2.966190 6.326040 12.994200 -0.242716 4.980390 -90.609300 2.300810 -75.162300 5.348090 -0.000007 -0.000001 -61.995100 -20.047300 -66.450900 24.328600 0.000019 0.000005 39.229500 -10.541800 -102.631000 22.291600 -0.000001 0.000005 36.595300 4.875370 9.864990 12.994500 -0.242716 -4.980390 89.137200 11.242200 -85.582600 -5.348130 -0.000001 -0.000004 -53.418800 35.233600 -26.807000 -24.328900 0.000322 -0.000009 0.820993 2.158770 -20.852600 -22.291500 -0.000108 -0.000004 15.843300 5.424750 -3.759910 -2.192480 -6.469440 -0.000000 -173.529000 -11.336400 -3.298950 39.081100 -0.000007 -0.000012 -0.205938 0.296781 34.757300 40.985400 -0.000006 -0.000013 0.085375 7.031490 -68.583900 11.754300 -0.000000 0.000003 -0.000137 -0.001348 -16.628900 -2.192510 6.469440 -0.000001 174.016000 24.443600 179.792000 -39.081100 -0.002282 -0.040193 -0.210866 0.317087 34.035100 -40.985400 0.000008 0.000006 4.714810 11.756700 -70.669500 -11.754300 -0.000006 -0.000006 -0.001890 -0.027329 -17.684400
0.000000 0.000000 0.000000 0.000000 0.000000 -0.000000 -1.922140 90.261000 -4.324270 89.295300 1.585890 12.609500 15.735700 0.000005 -0.000001 91.163100 76.090600 -90.990800 8.984550 -0.406207 -0.000000 20.046900 0.570372 0.244830 16.377300 -0.000001 -0.000001 5.118790 -2.898030 1.465760 6.456720 -0.000001 -0.000000 -9.273040 -2.894770 6.322190 12.994200 -0.242716 4.980390 -90.579600 2.186650 -75.151900 5.348090 -0.000007 -0.000001 -58.831600 -18.506500 -67.165300 24.328600 0.000019 0.000005 39.832200 -11.031400 -102.920000 22.291600 -0.000001 0.000005 36.112200 4.892420 9.528320 12.994500 -0.242716 -4.980390 89.152100 11.206700 -85.645100 -5.348130 -0.000001 -0.000004 -53.374300 35.255500 -27.042500 -24.328900 0.000322 -0.000009 0.843393 2.215770 -20.868300 -22.291500 -0.000108 -0.000004 15.739200 5.425220 -3.775680 -2.192480 -6.469440 -0.000000 -173.494000 -11.439200 -3.324910 39.081100 -0.000007 -0.000012 -0.206995 0.298709 34.721000 40.985400 -0.000006 -0.000013 0.079319 7.027570 -68.543700 11.754300 -0.000000 0.000003 -0.000146 -0.001420 -16.631600 -2.192510 6.469440 -0.000001 174.073000 24.469100 179.740000 -39.081100 -0.002282 -0.040193 -0.204266 0.307844 33.989500 -40.985400 0.000008 0.000006 4.751740 11.824800 -70.622600 -11.754300 -0.000006 -0.000006 -0.001964 -0.028261 -17.722300
0.000000 0.000000 0.000000 0.000000 0.000000 -0.000000 -1.924380 90.263800 -4.357250 89.261100 1.401080 12.583500 15.735700 0.000005 -0.000001 91.042000 76.105500 -90.888400 8.984550 -0.406207 -0.000000 20.018200 0.510357 0.218020 16.377300 -0.000001 -0.000001 5.175700 -2.840630 1.371950 6.456720 -0.000001 -0.000000 -9.250670 -2.838820 6.279010 12.994200 -0.242716 4.980390 -90.551500 2.078660 -75.137700 5.348090 -0.000007 -0.000001 -55.762100 -17.172100 -67.820900 24.328600 0.000019 0.000005 40.149500 -11.505500 -103.303000 22.291600 -0.000001 0.000005 35.641800 4.917070 9.035270 12.994500 -0.242716 -4.980390 89.160600 11.160600 -85.671200 -5.348130 -0.000001 -0.000004 -53.410200 35.249500 -27.225900 -24.328900 0.000322 -0.000009 0.884430 2.317340 -20.919300 -22.291500 -0.000108 -0.000004 15.775400 5.425780 -3.794650 -2.192480 -6.469440 -0.000000 -173.446000 -11.520700 -3.351520 39.081100 -0.000007 -0.000012 -0.203968 0.294264 34.727900 40.985400 -0.000006 -0.000013 0.051843 6.946890 -68.536400 11.754300 -0.000000 0.000003 -0.000144 -0.001405 -16.631000 -2.192510 6.469440 -0.000001 174.150000 24.407500 179.667000 -39.081100 -0.002282 -0.040193 -0.206181 0.310826 33.977300 -40.985400 0.000008 0.000006 4.820190 11.904500 -70.593000 -11.754300 -0.000006 -0.000006 -0.001996 -0.028661 -17.738500
0.000000 0.000000 0.000000 0.000000 0.000000 -0.000000 -1.920500 90.266400 -4.367540 89.230700 1.109510 12.582600 15.735700 0.000005 -0.000001 90.941500 76.123100 -90.809400 8.984550 -0.406207 -0.000000 19.983900 0.459863 0.183932 16.377300 -0.000001 -0.000001 5.274560 -2.788220 1.244130 6.456720 -0.000001 -0.000000 -9.244300 -2.808120 6.296670 12.994200 -0.242716 4.980390 -90.513100 1.933110 -75.132200 5.348090 -0.000007 -0.000001 -52.910600 -15.961800 -68.327800 24.328600 0.000019 0.000005 40.600300 -12.073500 -103.714000 22.291600 -0.000001 0.000005 35.349000 4.938580 8.598630 12.994500 -0.242716 -4.980390 89.164200 11.142700 -85.682900 -5.348130 -0.000001 -0.000004 -53.452300 35.271300 -27.330600 -24.328900 0.000322 -0.000009 0.879681 2.290600 -21.038300 -22.291500 -0.000108 -0.000004 15.835400 5.424680 -3.757300 -2.192480 -6.469440 -0.000000 -173.365000 -11.712800 -3.310150 39.081100 -0.000007 -0.000012 -0.206543 0.297968 34.729000 40.985400 -0.000006 -0.000013 0.033521 6.887210 -68.553000 11.754300 -0.000000 0.000003 -0.000143 -0.001394 -16.630600 -2.192510 6.469440 -0.000001 174.192000 24.323800 179.647000 -39.081100 -0.002282 -0.040193 -0.208437 0.314631 33.938800 -40.985400 0.000008 0.000006 4.768020 12.145000 -70.532400 -11.754300 -0.000006 -0.000006 -0.001864 -0.026999 -17.671000
0.000000 0.000000 0.000000 0.000000 0.000000 -0.000000 -1.918570 90.262900 -4.365900 89.169100 0.747524 12.587800 15.735700 0.000005 -0.000001 90.864100 76.137100 -90.746400 8.984550 -0.406207 -0.000000 19.956500 0.421246 0.161991 16.377300 -0.000001 -0.000001 5.376310 -2.768920 1.175550 6.456720 -0.000001 -0.000000 -9.286240 -2.739740 6.263450 12.994200 -0.242716 4.980390 -90.476900 1.799710 -75.155300 5.348090 -0.000007 -0.000001 -50.315200 -14.952100 -68.692800 24.328600 0.000019 0.000005 40.607200 -12.628600 -104.306000 22.291600 -0.000001 0.000005 35.027200 4.962380 8.109220 12.994500 -0.242716 -4.980390 89.183000 11.110900 -85.767900 -5.348130 -0.000001 -0.000004 -53.589200 35.268000 -27.242000 -24.328900 0.000322 -0.000009 0.900868 2.317040 -21.275800 -22.291500 -0.000108 -0.000004 15.920400 5.424480 -3.750460 -2.192480 -6.469440 -0.000000 -173.248000 -11.887900 -3.258950 39.081100 -0.000007 -0.000012 -0.205614 0.296162 34.771200 40.985400 -0.000006 -0.000013 -0.013366 6.747270 -68.609600 11.754300 -0.000000 0.000003 -0.000138 -0.001356 -16.629200 -2.192510 6.469440 -0.000001 174.289000 24.158400 179.611000 -39.081100 -0.002282 -0.040193 -0.210338 0.317546 33.931300 -40.985400 0.000008 0.000006 4.831720 12.351300 -70.516000 -11.754300 -0.000006 -0.000006 -0.001971 -0.028350 -17.725900
0.000000 0.000000 0.000000 0.000000 0.000000 -0.000000 -1.914580 90.264100 -4.350900 89.139300 0.370539 12.589300 15.735700 0.000005 -0.000001 90.768400 76.162200 -90.673700 8.984550 -0.406207 -0.000000 19.907000 0.372895 0.124504 16.377300 -0.000001 -0.000001 5.474970 -2.726260 1.002760 6.456720 -0.000001 -0.000000 -9.297540 -2.719150 6.354300 12.994200 -0.242716 4.980390 -90.440100 1.662130 -75.168400 5.348090 -0.000007 -0.000001 -48.014600 -13.979600 -68.936500 24.328600 0.000019 0.000005 40.295000 -13.047500 -104.909000 22.291600 -0.000001 0.000005 34.876000 4.988750 7.557090 12.994500 -0.242716 -4.980390 89.187500 11.090600 -85.783400 -5.348130 -0.000001 -0.000004 -53.717900 35.328100 -27.168400 -24.328900 0.000322 -0.000009 0.916131 2.344690 -21.371500 -22.291500 -0.000108 -0.000004 15.903800 5.425790 -3.795210 -2.192480 -6.469440 -0.000000 -173.159000 -12.096900 -3.176600 39.081100 -0.000007 -0.000012 -0.206147 0.296904 34.773500 40.985400 -0.000006 -0.000013 -0.064439 6.588840 -68.655800 11.754300 -0.000000 0.000003 -0.000154 -0.001483 -16.633900 -2.192510 6.469440 -0.000001 174.368000 23.979400 179.581000 -39.081100 -0.002282 -0.040193 -0.205947 0.311233 33.913000 -40.985400 0.000008 0.000006 4.872080 12.535800 -70.496300 -11.754300 -0.000006 -0.000006 -0.001883 -0.027244 -17.680900
0.000000 0.000000 0.000000 0.000000 0.000000 -0.000000 -1.908200 90.260000 -4.319340 89.119400 -0.006409 12.601400 15.735700 0.000005 -0.000001 90.595000 76.182200 -90.515500 8.984550 -0.406207 -0.000000 19.868100 0.289026 0.108979 16.377300 -0.000001 -0.000001 5.515650 -2.683370 0.903777 6.456720 -0.000001 -0.000000 -9.289880 -2.656400 6.295790 12.994200 -0.242716 4.980390 -90.426500 1.623660 -75.279300 5.348090 -0.000007 -0.000001 -46.434000 -13.388000 -68.985900 24.328600 0.000019 0.000005 41.319400 -13.806700 -105.187000 22.291600 -0.000001 0.000005 34.345100 5.013600 7.028350 12.994500 -0.242716 -4.980390 89.185800 11.079600 -85.770300 -5.348130 -0.000001 -0.000004 -53.733600 35.514200 -27.123700 -24.328900 0.000322 -0.000009 0.866810 2.209790 -21.448200 -22.291500 -0.000108 -0.000004 15.951400 5.424790 -3.761020 -2.192480 -6.469440 -0.000000 -173.068000 -12.304900 -3.079940 39.081100 -0.000007 -0.000012 -0.207563 0.298753 34.790500 40.985400 -0.000006 -0.000013 -0.103316 6.488920 -68.720900 11.754300 -0.000000 0.000003 -0.000149 -0.001443 -16.632400 -2.192510 6.469440 -0.000001 174.409000 23.805500 179.571000 -39.081100 -0.002282 -0.040193 -0.210186 0.317497 33.916500 -40.985400 0.000008 0.000006 4.881940 12.736800 -70.492000 -11.754300 -0.000006 -0.000006 -0.001914 -0.027633 -17.696700
